# xmcd
#
# Track frame offsets:
#	150
#	14087
#	24612
#	40695
#	53162
#	64512
#	76680
#	93672
#	104045
#	122272
#	139572
#	153727
#	165050
#	177867
#	191795
#	206730
#	220315
#	233985
#	242600
#	258622
#
# Disc length: 3588 seconds
#
# Revision: 1
# Processed by: cddbd v1.5PL3 Copyright (c) Steve Scherf et al.
# Submitted via: audiograbber 1.82.01
#
DISCID=110e0214
DTITLE=Richard Dobson and State Of The Heart - Hearts and Rivers
DYEAR=1989
DGENRE=Texas Music
TTITLE0=Big two-hearted river
TTITLE1=Country boy with a Rock and Roll heart
TTITLE2=Texas rivers song
TTITLE3=No rolling stone
TTITLE4=Down in Lafayette
TTITLE5=Cost me a heart
TTITLE6=Useful girl
TTITLE7=Highland rim
TTITLE8=Old friends
TTITLE9=Molly and Dan
TTITLE10=Old man collecting cans
TTITLE11=Don't know why blues
TTITLE12=Heart good as new
TTITLE13=Living with a loaded gun
TTITLE14=Rasputin
TTITLE15=That's right
TTITLE16=Without you
TTITLE17=Liar's polka
TTITLE18=Rock and a soft place
TTITLE19=Love train
EXTD=
EXTT0=
EXTT1=
EXTT2=
EXTT3=
EXTT4=
EXTT5=
EXTT6=
EXTT7=
EXTT8=
EXTT9=
EXTT10=
EXTT11=
EXTT12=
EXTT13=
EXTT14=
EXTT15=
EXTT16=
EXTT17=
EXTT18=
EXTT19=
PLAYORDER=
